<?xml version="1.0" encoding="utf-8"?>
<!-- Generator: Adobe Illustrator 21.1.0, SVG Export Plug-In . SVG Version: 6.00 Build 0)  -->
<svg version="1.1" id="Layer_1" xmlns="http://www.w3.org/2000/svg" xmlns:xlink="http://www.w3.org/1999/xlink" x="0px" y="0px"
	 viewBox="0 0 7.7 7.7" style="enable-background:new 0 0 7.7 7.7;" xml:space="preserve">
<style type="text/css">
	.st0{fill:#E42520;}
</style>
<title>Group</title>
<desc>Created using Figma</desc>
<path class="st0" d="M5.2,3.8l2.1-2.1c0.4-0.4,0.4-1,0-1.4C7-0.1,6.3-0.1,6,0.3L3.8,2.4L1.7,0.3c-0.4-0.4-1-0.4-1.4,0
	c-0.4,0.4-0.4,1,0,1.4l2.1,2.1L0.3,5.9c-0.4,0.4-0.4,1,0,1.4c0.4,0.4,1,0.4,1.4,0l2.1-2.1l2.1,2.1c0.4,0.4,1,0.4,1.4,0
	c0.4-0.4,0.4-1,0-1.4L5.2,3.8z"/>
</svg>
