<?xml version="1.0" encoding="utf-8"?>
<!-- Generator: Adobe Illustrator 21.1.0, SVG Export Plug-In . SVG Version: 6.00 Build 0)  -->
<svg version="1.1" id="Layer_1" xmlns="http://www.w3.org/2000/svg" xmlns:xlink="http://www.w3.org/1999/xlink" x="0px" y="0px"
	 viewBox="0 0 14 14" style="enable-background:new 0 0 14 14;" xml:space="preserve">
<style type="text/css">
	.st0{fill:#E42520;}
</style>

<title>Group</title>
<desc>Created using Figma</desc>
<path class="st0" d="M8.5,7l5.2-5.2c0.4-0.4,0.4-1.1,0-1.5s-1.1-0.4-1.5,0L7,5.5L1.8,0.3c-0.4-0.4-1.1-0.4-1.5,0s-0.4,1.1,0,1.5
	L5.5,7l-5.2,5.2c-0.4,0.4-0.4,1.1,0,1.5s1.1,0.4,1.5,0L7,8.5l5.2,5.2c0.4,0.4,1.1,0.4,1.5,0c0.4-0.4,0.4-1.1,0-1.5L8.5,7z"/>
</svg>
