<?xml version="1.0" encoding="utf-8"?>
<!-- Generator: Adobe Illustrator 21.1.0, SVG Export Plug-In . SVG Version: 6.00 Build 0)  -->
<svg version="1.1" id="Layer_1" xmlns="http://www.w3.org/2000/svg" xmlns:xlink="http://www.w3.org/1999/xlink" x="0px" y="0px"
	 viewBox="0 0 17 22" style="enable-background:new 0 0 17 22;" xml:space="preserve">
<style type="text/css">
	.st0{fill:#E42520;}
</style>
<title>Union</title>
<desc>Created using Figma</desc>
<g>
	<path class="st0" d="M14.8,0H5.9C4.6,0,3.7,1.1,3.7,2.3c0,0.4,0.3,0.8,0.7,0.8s0.7-0.3,0.7-0.8c0-0.5,0.4-0.8,0.7-0.8h8.9
		c0.4,0,0.7,0.3,0.7,0.8v13.5c0,0.5-0.4,0.8-0.7,0.8c-0.4,0-0.7,0.3-0.7,0.8c0,0.4,0.3,0.8,0.7,0.8c1.2,0,2.2-1.1,2.2-2.3V2.3
		C17,1.1,16,0,14.8,0z"/>
	<path class="st0" d="M11.1,3.9H2.2C1,3.9,0,5,0,6.2v13.5C0,20.9,1,22,2.2,22h8.9c1.2,0,2.2-1.1,2.2-2.3V6.2
		C13.3,5,12.4,3.9,11.1,3.9z M11.8,19.7c0,0.4-0.3,0.8-0.7,0.8H2.2c-0.4,0-0.7-0.3-0.7-0.8V6.2c0-0.5,0.4-0.8,0.7-0.8h8.9
		c0.4,0,0.7,0.3,0.7,0.8V19.7z"/>
</g>
</svg>
