<svg id="Layer_1" xmlns="http://www.w3.org/2000/svg" viewBox="0 0 224 52.1"><style>.st0{fill:#2d2d2d}.st1{fill:#989696}</style><path class="st0" d="M87.8 30.9h-4.3c-.2 0-.4-.1-.4-.3l-2.5-6.2c-.1-.2-.2-.3-.4-.3h-9c-.2 0-.4.1-.4.3l-2.5 6.2c-.1.2-.2.3-.4.3h-4.3c-.3 0-.6-.3-.4-.6L73.6 5c.1-.2.2-.3.4-.3h3.3c.2 0 .4.1.4.3l10.5 25.2c.1.3-.1.7-.4.7zm-9.4-12.1l-2.3-5.9c-.2-.4-.7-.4-.9 0l-2.3 5.9c-.1.3.1.6.4.6H78c.3 0 .5-.3.4-.6zm41.2 12.1h-3.8c-.3 0-.5-.2-.5-.5v-9.9c0-1.4-.2-2.5-.5-3.3-.6-1.4-1.7-2-3.3-2-1.6 0-2.6.7-3.2 2-.4.8-.6 1.9-.6 3.4v9.9c0 .3-.2.5-.5.5h-3.8c-.3 0-.5-.2-.5-.5v-9.9c0-1.4-.2-2.5-.5-3.3-.6-1.4-1.7-2-3.3-2-1.6 0-2.6.7-3.2 2-.4.8-.6 1.9-.6 3.4v9.9c0 .3-.2.5-.5.5H91c-.3 0-.5-.2-.5-.5V11.8c0-.3.2-.5.5-.5h3.4c.3 0 .5.2.5.5v1.3c.7-.9 1.5-1.5 2.4-1.9.9-.4 1.9-.5 2.8-.5 1.1 0 2.1.2 3.1.7.9.4 1.7 1.1 2.3 1.8.2.2.5.2.7 0 .6-.6 1.2-1.2 1.9-1.6 1.2-.6 2.5-.9 3.9-.9 2.4 0 4.4.8 5.8 2.3 1.4 1.5 2.2 3.7 2.2 6.4v11c.1.3-.1.5-.4.5zm24.7-9.8c0 2.7-.8 5-2.3 7-1.8 2.3-4.2 3.4-7.3 3.4-1.3 0-2.6-.3-3.7-.8-.8-.3-1.4-.8-2-1.5-.3-.3-.8-.1-.8.3v.9c0 .3-.2.5-.5.5h-3.4c-.3 0-.5-.2-.5-.5V5.2c0-.3.2-.5.5-.5h3.8c.3 0 .5.2.5.5v7.1c0 .4.5.6.8.3 1.5-1.3 3.2-1.9 5.3-1.9 3.2 0 5.6 1.1 7.4 3.3 1.4 2 2.2 4.3 2.2 7.1zm-4.7 0c0-1.7-.5-3.2-1.5-4.3-1-1.1-2.4-1.7-4-1.7s-3 .5-4.1 1.6c-1.1 1.1-1.7 2.4-1.7 4.1 0 1.8.5 3.2 1.6 4.4 1.1 1.2 2.5 1.8 4.2 1.8 1.6 0 3-.6 4-1.7s1.5-2.5 1.5-4.2zm10-11.9h-.1c-1.3 0-2.3-1-2.3-2.3 0-1.3 1-2.3 2.3-2.3h.1c1.3 0 2.3 1 2.3 2.3-.1 1.3-1.1 2.3-2.3 2.3zm1.8 21.7h-3.8c-.3 0-.5-.2-.5-.5V11.8c0-.3.2-.5.5-.5h3.8c.3 0 .5.2.5.5v18.6c-.1.3-.3.5-.5.5zm17.1-6.2c0 1.9-.6 3.6-1.9 4.8-1.3 1.3-3 1.9-5.1 1.9-2.2 0-3.9-.7-5.3-2.1-1.1-1.2-1.7-2.6-1.8-4.2 0-.3.2-.5.5-.5h3.8c.2 0 .4.2.4.4.1.5.3.9.7 1.3.5.4 1.1.6 1.8.6s1.2-.2 1.6-.5c.4-.4.6-.8.6-1.5 0-.5-.2-1-.5-1.3-.2-.2-.7-.5-1.3-.7-.3-.1-.6-.2-.7-.2-.4-.1-.8-.3-1.3-.4-1.4-.4-2.4-1-3.2-1.6-1.2-1-1.8-2.4-1.8-4 0-1.5.5-2.9 1.6-4 1.2-1.3 2.9-2 5-2 1.8 0 3.3.6 4.5 1.7 1.1 1 1.7 2.3 1.8 3.8 0 .3-.2.5-.5.5h-3.8c-.2 0-.4-.1-.4-.3-.1-.3-.2-.6-.4-.8-.3-.3-.7-.5-1.3-.5-.6 0-1 .2-1.3.5-.3.3-.4.7-.4 1.2 0 .7.4 1.2 1.1 1.5.4.2 1 .4 1.9.6 1.7.4 3 .9 3.8 1.5 1.3 1.1 1.9 2.5 1.9 4.3zm21.7 6.2h-3.4c-.3 0-.5-.2-.5-.5v-1c0-.4-.5-.6-.8-.3-.6.6-1.3 1.1-2.1 1.5-2.1 1-4.6 1.1-7.5.2h-.1c-3.8-2.1-5.7-5.3-5.7-9.5 0-3 .9-5.5 2.8-7.5s4.2-3 6.9-3c2.4 0 4.2.8 5.6 2.3.3.3.8.1.8-.3v-1c0-.3.2-.5.5-.5h3.4c.3 0 .5.2.5.5v18.6c0 .3-.2.5-.4.5zm-4-9.9c0-1.7-.5-3.1-1.5-4.2s-2.4-1.7-4.1-1.7c-1.7 0-3 .6-4.1 1.7-1.1 1.1-1.6 2.6-1.6 4.4 0 1.7.5 3 1.6 4.1 1.1 1.1 2.5 1.6 4.1 1.6 1.7 0 3-.5 4.1-1.6s1.5-2.5 1.5-4.3zm15.6-5.5h-2c-.3 0-.5.2-.5.5v14.5c0 .3-.2.5-.5.5H195c-.3 0-.5-.2-.5-.5V15.9c0-.3-.2-.5-.5-.5h-.7c-.3 0-.5-.2-.5-.5v-3.2c0-.3.2-.5.5-.5h1.2V11c0-2.1.6-3.8 1.9-5 1.2-1.2 2.9-1.8 4.9-1.8h.9V9h-.6c-.8 0-1.3.2-1.7.6-.4.4-.6.9-.6 1.5v.2h2.5c.3 0 .5.2.5.5V15c-.1.3-.3.5-.5.5zm22.2 5.6v.5c0 .4 0 .7-.1 1.1 0 .2-.2.4-.5.4h-14.3c-.3 0-.5.3-.4.7.3.9.9 1.6 1.6 2.1.9.7 2 1.1 3.3 1.1.8 0 1.6-.1 2.3-.4.8-.3 1.4-.7 2-1.3.1-.1.2-.1.3-.1h4.4c.3 0 .6.4.4.7-.9 1.7-2 3-3.6 4-1.7 1.1-3.6 1.6-5.6 1.6-3.2 0-5.9-1.1-7.8-3.4-1.7-2-2.5-4.3-2.5-6.8 0-2.6.8-4.9 2.5-6.9 2-2.4 4.6-3.6 7.9-3.6 3 0 5.4 1 7.3 3 1.8 1.9 2.8 4.3 2.8 7.3zm-5.6-2.1c.3 0 .5-.3.4-.7-.4-.9-.9-1.6-1.7-2.2-.9-.7-2-1-3.2-1-1.3 0-2.4.4-3.4 1.1-.8.6-1.4 1.3-1.8 2.1-.2.3.1.7.4.7h9.3zM34.2 26.6c-.2-2.4-2.2-4.4-4.6-4.6-3.1-.2-5.7 2.3-5.4 5.4.2 2.4 2.2 4.4 4.6 4.6 3.1.2 5.6-2.3 5.4-5.4z"/><path class="st0" d="M50.7 26.7v-.3c-.2-6.5-3.2-12.4-8-16.2-.5-.4-.6-1.1-.3-1.6l1.4-2.4c1.1-1.9.5-4.3-1.4-5.4h-.1C40.4-.3 38 .3 36.9 2.2L35 5.3c-.3.5-.8.7-1.4.6-1.1-.3-2.1-.4-3.4-.5-3.5-.2-7.1.6-8.9 6.8-1.3 4.5-.8 7-.6 8.2.1.4.6.5.8.2 1.3-1.7 3.3-3 5.9-3.5.5-.1 1.7-.2 2.8-.1 4.1.3 9.3 2 14.7 6.3 2.4 1.9 3.8 3.4 4.8 4.5.3.3.8.1.8-.3V27c.2 0 .2-.2.2-.3z"/><path class="st0" d="M27.7 37.5c.3-.3.1-.8-.3-.8-2.2-.3-4.2-1.3-6-3.4-.3-.4-1-1.3-1.5-2.4-1.8-3.7-2.9-9-1.8-15.9.4-3 1-5 1.5-6.4.1-.4-.3-.7-.6-.6-.2.1-.3.2-.5.3 0 0-.2.1-.3.2-.1 0-.2.1-.2.1-5.6 3.4-9.1 9-10 15-.1.6-.6 1.1-1.3 1.1H4c-2.2 0-4 1.8-4 4v.1c0 2.2 1.8 4 4 4h3.6c.6 0 1 .4 1.2.9.3 1.1.7 2 1.3 3.2 1.6 3.1 4.1 5.9 10.3 4.3 4.5-1.3 6.5-2.9 7.3-3.7z"/><path class="st0" d="M45.1 41.4c.8-.8 1.4-1.6 2.1-2.7 1.9-2.9 3-6.5-1.5-11.1-3.3-3.3-5.7-4.2-6.8-4.6-.4-.1-.7.3-.6.6.9 2 1 4.3.1 6.9-.2.5-.7 1.5-1.3 2.5-2.3 3.4-6.4 7-12.8 9.6-2.8 1.1-4.8 1.6-6.3 1.9-.4.1-.5.6-.2.8.1.1.3.2.4.3 0 0 .2.1.3.2.1 0 .2.1.2.1a21.5 21.5 0 0 0 18 1.2c.6-.2 1.2 0 1.6.6l1.4 2.4c1.1 1.9 3.5 2.6 5.4 1.5h.1c1.9-1.1 2.6-3.5 1.5-5.4L45 42.9c-.3-.5-.2-1.1.1-1.5z"/><path class="st1" d="M69.1 36.4h2.6l5.4 12.8h-2.9L73 46.3h-5.4l-1.2 2.9h-2.8l5.5-12.8zm2.9 7.4l-1.7-4.1-1.7 4.1H72zm6 4.1l1.2-1.8c1.1.8 2.2 1.2 3.1 1.2.8 0 1.2-.3 1.2-.8 0-.6-.9-.8-2-1.1-1.4-.4-2.9-1-2.9-3s1.6-3.1 3.6-3.1c1.2 0 2.6.4 3.6 1.1l-1.1 1.9c-1-.6-1.9-.9-2.6-.9-.7 0-1 .3-1 .7 0 .5.9.8 2 1.2 1.4.5 2.9 1.1 2.9 2.9 0 2.2-1.6 3.1-3.7 3.1-1.5 0-3-.4-4.3-1.4zm8.9 0l1.2-1.8c1.1.8 2.2 1.2 3.1 1.2.8 0 1.2-.3 1.2-.8 0-.6-.9-.8-2-1.1-1.4-.4-2.9-1-2.9-3s1.6-3.1 3.6-3.1c1.2 0 2.6.4 3.6 1.1l-1.1 1.9c-1-.6-1.9-.9-2.6-.9-.7 0-1 .3-1 .7 0 .5.9.8 2 1.2 1.4.5 2.9 1.1 2.9 2.9 0 2.2-1.6 3.1-3.7 3.1-1.4 0-3-.4-4.3-1.4zm9.4-3.6c0-2.8 2-5.1 4.8-5.1 3.2 0 4.7 2.5 4.7 5.3v.7H99c.3 1.3 1.1 1.9 2.4 1.9.9 0 1.6-.3 2.4-1l1.6 1.4c-.9 1.1-2.2 1.8-4 1.8-2.9.1-5.1-2-5.1-5zm6.9-.8c-.2-1.2-.9-2.1-2.1-2.1-1.1 0-1.9.8-2.1 2.1h4.2zm5.2 2.9v-4.6h-1.2v-2.4h1.2v-2.5h2.8v2.5h2.3v2.4h-2.3V46c0 .6.3.9.9.9.5 0 1-.1 1.4-.3v2.2c-.6.3-1.3.6-2.2.6-1.8-.1-2.9-.7-2.9-3zm12.8-9.9h3l3.3 5.4 3.3-5.4h3v12.7H131v-8.3l-3.6 5.4h-.1l-3.5-5.4v8.2h-2.7V36.5zm14.9 9.8c0-2.1 1.6-3.1 3.9-3.1 1 0 1.7.2 2.4.4v-.2c0-1.1-.7-1.8-2.1-1.8-1.1 0-1.8.2-2.7.5l-.7-2.1c1.1-.5 2.1-.8 3.8-.8 1.5 0 2.6.4 3.3 1.1.7.7 1.1 1.8 1.1 3.1V49h-2.7v-1.1c-.7.7-1.6 1.2-2.9 1.2-1.9.2-3.4-.8-3.4-2.8zm6.3-.6v-.5c-.5-.2-1.1-.4-1.8-.4-1.2 0-1.9.5-1.9 1.4 0 .7.6 1.2 1.5 1.2 1.4 0 2.2-.7 2.2-1.7zm5-6.3h2.8v1.4c.6-.8 1.5-1.6 2.9-1.6 2.1 0 3.3 1.4 3.3 3.6v6.3h-2.8v-5.4c0-1.3-.6-2-1.7-2s-1.7.7-1.7 2v5.4h-2.8v-9.7zm10.8 6.9c0-2.1 1.6-3.1 3.9-3.1 1 0 1.7.2 2.4.4v-.2c0-1.1-.7-1.8-2.1-1.8-1.1 0-1.8.2-2.7.5L159 40c1.1-.5 2.1-.8 3.8-.8 1.5 0 2.6.4 3.3 1.1.7.7 1.1 1.8 1.1 3.1V49h-2.7v-1.1c-.7.7-1.6 1.2-2.9 1.2-1.9.2-3.4-.8-3.4-2.8zm6.3-.6v-.5c-.5-.2-1.1-.4-1.8-.4-1.2 0-1.9.5-1.9 1.4 0 .7.6 1.2 1.5 1.2 1.3 0 2.2-.7 2.2-1.7zm5 5.4l.9-2.1c1 .6 2 .9 3.3.9 1.9 0 2.8-.9 2.8-2.7v-.5c-.8 1-1.7 1.6-3.2 1.6-2.3 0-4.3-1.7-4.3-4.6 0-2.9 2.1-4.5 4.3-4.5 1.5 0 2.4.6 3.1 1.5v-1.3h2.8V47c0 1.7-.4 3-1.2 3.8-.9.9-2.3 1.3-4.2 1.3-1.5 0-3-.4-4.3-1zm7-7.3c0-1.3-1-2.3-2.4-2.3-1.3 0-2.4.9-2.4 2.3 0 1.3 1 2.3 2.4 2.3s2.4-1 2.4-2.3zm4.8.5c0-2.8 2-5.1 4.8-5.1 3.2 0 4.7 2.5 4.7 5.3v.7H184c.3 1.3 1.1 1.9 2.4 1.9.9 0 1.6-.3 2.4-1l1.6 1.4c-.9 1.1-2.2 1.8-4 1.8-3 .1-5.1-2-5.1-5zm6.8-.8c-.2-1.2-.9-2.1-2.1-2.1-1.1 0-1.9.8-2.1 2.1h4.2zm4.8-4.1h2.8v2c.6-1.3 1.5-2.2 3.1-2.1v2.9h-.1c-1.8 0-3 1.1-3 3.4v3.6h-2.8v-9.8z"/></svg>