<?xml version="1.0" encoding="utf-8"?>
<!-- Generator: Adobe Illustrator 21.0.0, SVG Export Plug-In . SVG Version: 6.00 Build 0)  -->
<svg version="1.1" id="Layer_1" xmlns="http://www.w3.org/2000/svg" xmlns:xlink="http://www.w3.org/1999/xlink" x="0px" y="0px"
	 viewBox="0 0 32 19" style="enable-background:new 0 0 32 19;" xml:space="preserve">
<style type="text/css">
	.st0{fill:#E42520;}
</style>
<g>
	<path class="st0" d="M3.4,12.9c1.6,0,2.4-0.6,2.4-1.7c0-0.3-0.1-0.6-0.2-0.9C5.5,10.2,5.3,10,5.1,9.8C4.8,9.6,4.5,9.5,4.2,9.3
		c-0.3-0.1-0.6-0.3-1-0.4C2.8,8.8,2.4,8.7,2.1,8.5C1.7,8.3,1.4,8.1,1.1,7.9C0.9,7.6,0.7,7.3,0.5,7C0.3,6.7,0.3,6.3,0.3,5.8
		c0-1,0.3-1.7,1-2.3C1.9,3,2.8,2.7,4,2.7c0.7,0,1.3,0.1,1.8,0.2c0.5,0.1,1,0.3,1.2,0.5L6.5,4.7C6.3,4.5,6,4.4,5.5,4.3
		C5.1,4.1,4.6,4.1,4,4.1c-0.3,0-0.6,0-0.8,0.1C2.9,4.2,2.7,4.3,2.5,4.4C2.3,4.6,2.1,4.7,2,4.9C1.9,5.1,1.9,5.4,1.9,5.6
		c0,0.3,0.1,0.5,0.2,0.8c0.1,0.2,0.3,0.4,0.5,0.5C2.7,7.1,3,7.2,3.3,7.3c0.3,0.1,0.6,0.3,0.9,0.4c0.5,0.2,0.9,0.4,1.3,0.6
		c0.4,0.2,0.7,0.4,1,0.7c0.3,0.3,0.5,0.6,0.7,1c0.2,0.4,0.2,0.8,0.2,1.3c0,1-0.4,1.7-1.1,2.2c-0.7,0.5-1.7,0.8-3,0.8
		c-0.4,0-0.8,0-1.2-0.1c-0.4-0.1-0.7-0.1-1-0.2c-0.3-0.1-0.5-0.2-0.7-0.3c-0.2-0.1-0.4-0.2-0.5-0.2l0.5-1.3c0.2,0.1,0.6,0.3,1.1,0.5
		C2.1,12.9,2.7,12.9,3.4,12.9z"/>
	<path class="st0" d="M12,5.5c0.6,0,1.1,0.1,1.5,0.2s0.7,0.4,1,0.7c0.3,0.3,0.4,0.6,0.5,1c0.1,0.4,0.2,0.8,0.2,1.3v5.2
		c-0.1,0-0.3,0.1-0.5,0.1c-0.2,0-0.5,0.1-0.8,0.1s-0.6,0.1-0.9,0.1c-0.3,0-0.7,0-1,0c-0.5,0-0.9,0-1.3-0.1c-0.4-0.1-0.7-0.2-1-0.5
		s-0.5-0.5-0.7-0.8c-0.2-0.3-0.2-0.8-0.2-1.2c0-0.5,0.1-0.9,0.3-1.2c0.2-0.3,0.4-0.6,0.8-0.8s0.7-0.4,1.1-0.4C11.3,9,11.7,9,12.2,9
		c0.1,0,0.3,0,0.5,0c0.2,0,0.3,0,0.5,0.1s0.3,0,0.4,0.1c0.1,0,0.2,0,0.2,0V8.8c0-0.2,0-0.5-0.1-0.7c-0.1-0.2-0.1-0.5-0.3-0.6
		C13.2,7.2,13,7.1,12.8,7c-0.2-0.1-0.6-0.2-0.9-0.2c-0.5,0-0.9,0-1.3,0.1C10.2,7,9.9,7,9.7,7.1L9.5,5.9c0.2-0.1,0.5-0.2,1-0.2
		C11,5.6,11.4,5.5,12,5.5z M12.1,13c0.4,0,0.7,0,0.9,0c0.3,0,0.5,0,0.7-0.1v-2.5c-0.1-0.1-0.3-0.1-0.5-0.1c-0.2,0-0.5-0.1-0.9-0.1
		c-0.2,0-0.5,0-0.7,0c-0.3,0-0.5,0.1-0.7,0.2s-0.4,0.2-0.5,0.4c-0.1,0.2-0.2,0.4-0.2,0.7c0,0.5,0.2,0.9,0.5,1.1
		C11,12.9,11.5,13,12.1,13z"/>
	<path class="st0" d="M23.9,5.7c-0.4,1.6-0.9,3.1-1.5,4.5c-0.6,1.4-1.1,2.7-1.6,3.8h-1.3c-0.5-1.1-1.1-2.4-1.6-3.8
		c-0.6-1.4-1-2.9-1.5-4.5H18c0.1,0.5,0.3,1.1,0.5,1.7C18.6,8,18.8,8.6,19,9.2c0.2,0.6,0.4,1.1,0.6,1.7c0.2,0.5,0.4,1,0.6,1.5
		c0.2-0.4,0.4-0.9,0.6-1.5c0.2-0.5,0.4-1.1,0.6-1.7c0.2-0.6,0.4-1.2,0.6-1.8c0.2-0.6,0.3-1.1,0.5-1.7H23.9z"/>
	<path class="st0" d="M24.7,9.9c0-0.7,0.1-1.4,0.3-1.9c0.2-0.5,0.5-1,0.8-1.4c0.4-0.4,0.8-0.6,1.2-0.8c0.5-0.2,0.9-0.3,1.4-0.3
		c1.1,0,2,0.3,2.6,1C31.7,7.3,32,8.3,32,9.8c0,0.1,0,0.1,0,0.2c0,0.1,0,0.2,0,0.3h-5.7c0.1,0.9,0.3,1.5,0.8,2s1.1,0.7,2,0.7
		c0.5,0,1,0,1.3-0.1s0.6-0.2,0.8-0.3l0.2,1.2c-0.2,0.1-0.5,0.2-1,0.3s-1,0.2-1.5,0.2c-0.7,0-1.4-0.1-1.9-0.3c-0.5-0.2-1-0.5-1.3-0.9
		c-0.3-0.4-0.6-0.8-0.8-1.4C24.8,11.1,24.7,10.5,24.7,9.9z M30.4,9.1c0-0.7-0.2-1.2-0.5-1.7c-0.3-0.4-0.8-0.6-1.4-0.6
		c-0.3,0-0.6,0.1-0.9,0.2c-0.3,0.1-0.5,0.3-0.7,0.5c-0.2,0.2-0.3,0.5-0.4,0.7c-0.1,0.3-0.2,0.6-0.2,0.8H30.4z"/>
</g>
</svg>
