<?xml version="1.0" encoding="utf-8"?>
<!-- Generator: Adobe Illustrator 21.0.1, SVG Export Plug-In . SVG Version: 6.00 Build 0)  -->
<svg version="1.1" id="Layer_1" xmlns="http://www.w3.org/2000/svg" xmlns:xlink="http://www.w3.org/1999/xlink" x="0px" y="0px"
	 viewBox="0 0 18 18" style="enable-background:new 0 0 18 18;" xml:space="preserve">
<style type="text/css">
	.st0{fill:#F4F4F4;}
	.st1{fill:#E42520;}
</style>
<title>add_icon_hover</title>
<desc>Created using Figma</desc>
<path class="st0" d="M9,0C4,0,0,4,0,9s4,9,9,9s9-4,9-9S14,0,9,0z M9,16c-3.9,0-7-3.1-7-7c0-3.9,3.1-7,7-7c3.9,0,7,3.1,7,7
	C16,12.9,12.9,16,9,16z"/>
<g>
	<path class="st1" d="M9,4C8.4,4,8,4.4,8,5v5c0,0.6,0.4,1,1,1s1-0.4,1-1V5C10,4.4,9.6,4,9,4z"/>
	<circle class="st1" cx="9" cy="13" r="1"/>
</g>
</svg>
