<?xml version="1.0" encoding="utf-8"?>
<!-- Generator: Adobe Illustrator 21.0.1, SVG Export Plug-In . SVG Version: 6.00 Build 0)  -->
<svg version="1.1" id="Layer_1" xmlns="http://www.w3.org/2000/svg" xmlns:xlink="http://www.w3.org/1999/xlink" x="0px" y="0px"
	 viewBox="0 0 146 34.1" style="enable-background:new 0 0 146 34.1;" xml:space="preserve">
<style type="text/css">
	.st0{fill:#989696;}
	.st1{fill:#F4F4F4;}
</style>
<g>
	<path class="st0" d="M57.2,20.2h-2.8c-0.1,0-0.2-0.1-0.3-0.2l-1.6-4c0-0.1-0.2-0.2-0.3-0.2h-5.9c-0.1,0-0.2,0.1-0.3,0.2l-1.6,4
		c0,0.1-0.2,0.2-0.3,0.2h-2.8c-0.2,0-0.4-0.2-0.3-0.4L48,3.4c0-0.1,0.2-0.2,0.3-0.2h2.1c0.1,0,0.2,0.1,0.3,0.2l6.8,16.4
		C57.6,20,57.4,20.2,57.2,20.2z M51.1,12.4l-1.5-3.8c-0.1-0.3-0.5-0.3-0.6,0l-1.5,3.8c-0.1,0.2,0.1,0.4,0.3,0.4h3
		C51,12.8,51.2,12.6,51.1,12.4z"/>
</g>
<g>
	<path class="st0" d="M77.9,20.2h-2.5c-0.2,0-0.3-0.1-0.3-0.3v-6.5c0-0.9-0.1-1.7-0.3-2.2c-0.4-0.9-1.1-1.3-2.2-1.3
		c-1,0-1.7,0.4-2.1,1.3c-0.2,0.5-0.4,1.3-0.4,2.2v6.5c0,0.2-0.1,0.3-0.3,0.3h-2.5c-0.2,0-0.3-0.1-0.3-0.3v-6.5
		c0-0.9-0.1-1.7-0.3-2.2c-0.4-0.9-1.1-1.3-2.2-1.3c-1,0-1.7,0.4-2.1,1.3c-0.2,0.5-0.4,1.3-0.4,2.2v6.5c0,0.2-0.1,0.3-0.3,0.3h-2.5
		c-0.2,0-0.3-0.1-0.3-0.3V7.8c0-0.2,0.1-0.3,0.3-0.3h2.2c0.2,0,0.3,0.1,0.3,0.3v0.9c0.4-0.6,0.9-1,1.6-1.2c0.6-0.2,1.2-0.4,1.8-0.4
		c0.7,0,1.4,0.1,2,0.4c0.6,0.3,1.1,0.7,1.5,1.2c0.1,0.2,0.4,0.1,0.5,0c0.4-0.4,0.8-0.8,1.3-1c0.8-0.4,1.6-0.6,2.6-0.6
		c1.6,0,2.8,0.5,3.8,1.5c0.9,1,1.4,2.4,1.4,4.2v7.1C78.2,20.1,78.1,20.2,77.9,20.2z"/>
</g>
<g>
	<path class="st0" d="M94.1,13.9c0,1.8-0.5,3.3-1.5,4.5c-1.2,1.5-2.8,2.2-4.8,2.2c-0.9,0-1.7-0.2-2.4-0.5c-0.5-0.2-0.9-0.5-1.3-1
		c-0.2-0.2-0.5-0.1-0.5,0.2l0,0.6c0,0.2-0.1,0.3-0.3,0.3H81c-0.2,0-0.3-0.1-0.3-0.3V3.5c0-0.2,0.1-0.3,0.3-0.3h2.5
		c0.2,0,0.3,0.1,0.3,0.3v4.6c0,0.3,0.3,0.4,0.5,0.2c1-0.8,2.1-1.2,3.4-1.2c2.1,0,3.7,0.7,4.8,2.2C93.6,10.5,94.1,12.1,94.1,13.9z
		 M91,13.9c0-1.1-0.3-2.1-1-2.8c-0.7-0.7-1.5-1.1-2.6-1.1c-1.1,0-2,0.3-2.7,1c-0.7,0.7-1.1,1.6-1.1,2.7c0,1.1,0.4,2.1,1.1,2.9
		c0.7,0.8,1.6,1.2,2.7,1.2c1.1,0,1.9-0.4,2.6-1.1C90.7,15.9,91,15,91,13.9z"/>
</g>
<g>
	<path class="st0" d="M97.5,6.1L97.5,6.1c-0.9,0-1.6-0.7-1.6-1.5v0c0-0.8,0.7-1.5,1.5-1.5h0.1c0.8,0,1.5,0.7,1.5,1.5v0
		C99,5.4,98.3,6.1,97.5,6.1z M98.7,20.2h-2.5c-0.2,0-0.3-0.1-0.3-0.3V7.8c0-0.2,0.1-0.3,0.3-0.3h2.5c0.2,0,0.3,0.1,0.3,0.3v12.1
		C99,20.1,98.8,20.2,98.7,20.2z"/>
</g>
<g>
	<path class="st0" d="M109.8,16.2c0,1.3-0.4,2.3-1.3,3.1c-0.8,0.8-2,1.2-3.3,1.2c-1.4,0-2.6-0.5-3.4-1.4c-0.7-0.8-1.1-1.7-1.2-2.7
		c0-0.2,0.1-0.3,0.3-0.3h2.5c0.2,0,0.3,0.1,0.3,0.3c0.1,0.3,0.2,0.6,0.5,0.8c0.3,0.3,0.7,0.4,1.2,0.4c0.4,0,0.8-0.1,1-0.3
		c0.3-0.2,0.4-0.5,0.4-1c0-0.4-0.1-0.6-0.3-0.8c-0.2-0.2-0.4-0.3-0.8-0.5c-0.2-0.1-0.4-0.1-0.5-0.2c-0.3-0.1-0.6-0.2-0.8-0.3
		c-0.9-0.3-1.6-0.6-2.1-1c-0.8-0.7-1.2-1.6-1.2-2.6c0-1,0.3-1.9,1-2.6c0.8-0.9,1.9-1.3,3.3-1.3c1.2,0,2.1,0.4,2.9,1.1
		c0.7,0.7,1.1,1.5,1.2,2.5c0,0.2-0.1,0.3-0.3,0.3h-2.5c-0.1,0-0.3-0.1-0.3-0.2c-0.1-0.2-0.1-0.4-0.3-0.5c-0.2-0.2-0.5-0.3-0.8-0.3
		c-0.4,0-0.7,0.1-0.9,0.3c-0.2,0.2-0.3,0.5-0.3,0.8c0,0.4,0.2,0.8,0.7,1c0.2,0.1,0.7,0.3,1.3,0.4c1.1,0.3,1.9,0.6,2.5,1
		C109.4,14.1,109.8,15,109.8,16.2z"/>
</g>
<g>
	<path class="st0" d="M124,20.2h-2.2c-0.2,0-0.3-0.1-0.3-0.3v-0.6c0-0.3-0.3-0.4-0.5-0.2c-0.4,0.4-0.9,0.7-1.4,1
		c-1.4,0.7-3,0.7-4.9,0.1c0,0,0,0-0.1,0c-2.5-1.4-3.7-3.5-3.7-6.2c0-2,0.6-3.6,1.8-4.9s2.7-2,4.5-2c1.5,0,2.8,0.5,3.7,1.5
		c0.2,0.2,0.5,0.1,0.5-0.2l0-0.7c0-0.2,0.1-0.3,0.3-0.3h2.2c0.2,0,0.3,0.1,0.3,0.3v12.1C124.3,20.1,124.1,20.2,124,20.2z
		 M121.4,13.8c0-1.1-0.3-2-1-2.8c-0.7-0.7-1.6-1.1-2.7-1.1c-1.1,0-2,0.4-2.7,1.1c-0.7,0.7-1.1,1.7-1.1,2.9c0,1.1,0.3,2,1,2.7
		c0.7,0.7,1.6,1.1,2.7,1.1c1.1,0,2-0.4,2.6-1.1C121,15.9,121.4,15,121.4,13.8z"/>
</g>
<g>
	<path class="st0" d="M131.5,10.2h-1.3c-0.2,0-0.3,0.1-0.3,0.3v9.4c0,0.2-0.1,0.3-0.3,0.3h-2.5c-0.2,0-0.3-0.1-0.3-0.3v-9.4
		c0-0.2-0.1-0.3-0.3-0.3H126c-0.2,0-0.3-0.1-0.3-0.3V7.8c0-0.2,0.1-0.3,0.3-0.3h0.8V7.3c0-1.4,0.4-2.5,1.2-3.3
		c0.8-0.8,1.9-1.2,3.2-1.2h0.6V6h-0.4c-0.5,0-0.9,0.1-1.1,0.4c-0.3,0.3-0.4,0.6-0.4,1v0.1h1.6c0.2,0,0.3,0.1,0.3,0.3v2.1
		C131.8,10.1,131.7,10.2,131.5,10.2z"/>
</g>
<g>
	<path class="st0" d="M146,13.9v0.3c0,0.2,0,0.5,0,0.7c0,0.2-0.1,0.3-0.3,0.3h-9.3c-0.2,0-0.4,0.2-0.3,0.4c0.2,0.6,0.6,1,1.1,1.4
		c0.6,0.5,1.3,0.7,2.1,0.7c0.5,0,1-0.1,1.5-0.2c0.5-0.2,0.9-0.5,1.3-0.8c0.1-0.1,0.1-0.1,0.2-0.1h2.9c0.2,0,0.4,0.2,0.3,0.4
		c-0.6,1.1-1.3,2-2.3,2.6c-1.1,0.7-2.3,1-3.7,1c-2.1,0-3.8-0.7-5.1-2.2c-1.1-1.3-1.7-2.8-1.7-4.4c0-1.7,0.6-3.2,1.7-4.5
		c1.3-1.6,3-2.3,5.1-2.3c1.9,0,3.5,0.6,4.7,1.9C145.4,10.3,146,11.9,146,13.9z M142.4,12.5c0.2,0,0.4-0.2,0.3-0.4
		c-0.2-0.6-0.6-1.1-1.1-1.4c-0.6-0.4-1.3-0.7-2.1-0.7c-0.8,0-1.6,0.2-2.2,0.7c-0.5,0.4-0.9,0.8-1.2,1.4c-0.1,0.2,0,0.4,0.3,0.4
		H142.4z"/>
</g>
<path class="st0" d="M22.3,17.4c-0.1-1.6-1.4-2.9-3-3c-2-0.2-3.7,1.5-3.5,3.5c0.1,1.6,1.4,2.9,3,3C20.8,21.1,22.4,19.5,22.3,17.4z"
	/>
<path class="st0" d="M33,17.5c0-0.1,0-0.1,0-0.2c-0.1-4.3-2.1-8.1-5.2-10.6c-0.3-0.3-0.4-0.7-0.2-1.1l0,0l0.9-1.5
	c0.7-1.2,0.3-2.8-0.9-3.5l0,0c-1.2-0.7-2.8-0.3-3.5,0.9l-1.2,2c-0.2,0.3-0.5,0.5-0.9,0.4c0,0,0,0,0,0c-0.7-0.2-1.3-0.2-2.2-0.3
	c-2.3-0.1-4.6,0.4-5.8,4.4c-0.8,2.9-0.6,4.6-0.4,5.3c0.1,0.3,0.4,0.3,0.5,0.1c0.9-1.1,2.1-2,3.9-2.3c0.3-0.1,1.1-0.1,1.8-0.1
	c2.7,0.2,6,1.3,9.6,4.1c1.5,1.2,2.5,2.2,3.1,2.9c0.2,0.2,0.5,0.1,0.5-0.2c0-0.1,0-0.2,0-0.3C33,17.7,33,17.6,33,17.5z"/>
<path class="st0" d="M18.1,24.5c0.2-0.2,0.1-0.5-0.2-0.5c-1.4-0.2-2.8-0.9-3.9-2.2c-0.2-0.2-0.7-0.9-1-1.6
	c-1.2-2.4-1.9-5.9-1.2-10.4c0.3-1.9,0.6-3.3,1-4.2c0.1-0.3-0.2-0.5-0.4-0.4c-0.1,0.1-0.2,0.1-0.3,0.2c0,0-0.1,0.1-0.2,0.1
	c0,0-0.1,0.1-0.1,0.1C8.1,8,5.8,11.6,5.2,15.5c-0.1,0.4-0.4,0.7-0.8,0.7l0,0l-1.8,0c-1.4,0-2.6,1.1-2.6,2.6v0.1
	c0,1.4,1.1,2.6,2.6,2.6l2.3,0c0.4,0,0.7,0.2,0.8,0.6c0,0,0,0,0,0c0.2,0.7,0.5,1.3,0.9,2.1c1,2,2.7,3.8,6.7,2.8
	C16.2,26.1,17.5,25.1,18.1,24.5z"/>
<path class="st0" d="M29.4,27.1C29.4,27.1,29.4,27.1,29.4,27.1c0.5-0.5,0.9-1,1.4-1.8c1.2-1.9,2-4.2-0.9-7.2c-2.1-2.2-3.7-2.8-4.4-3
	c-0.2-0.1-0.5,0.2-0.4,0.4c0.6,1.3,0.6,2.8,0,4.5c-0.1,0.3-0.4,1-0.9,1.6c-1.5,2.2-4.2,4.6-8.4,6.2c-1.8,0.7-3.1,1.1-4.1,1.2
	c-0.3,0-0.3,0.4-0.1,0.5c0.1,0.1,0.2,0.1,0.3,0.2c0,0,0.1,0.1,0.2,0.1c0.1,0,0.1,0.1,0.2,0.1c3.7,2,8,2.2,11.7,0.8
	c0.4-0.1,0.8,0,1,0.4l0,0l0.9,1.5c0.7,1.2,2.3,1.7,3.5,1l0,0c1.2-0.7,1.7-2.3,1-3.5l-1.2-2C29.1,27.8,29.2,27.4,29.4,27.1z"/>
<g>
	<path class="st1" d="M45,23.8h1.7l3.5,8.3h-1.9l-0.8-1.9h-3.5l-0.8,1.9h-1.9L45,23.8z M46.9,28.7L45.8,26l-1.1,2.7H46.9z"/>
	<path class="st1" d="M50.8,31.3l0.8-1.2c0.7,0.5,1.4,0.8,2,0.8c0.5,0,0.8-0.2,0.8-0.5c0-0.4-0.6-0.5-1.3-0.7
		c-0.9-0.3-1.9-0.7-1.9-1.9c0-1.3,1-2,2.3-2c0.8,0,1.7,0.3,2.4,0.7l-0.7,1.2c-0.6-0.4-1.3-0.6-1.7-0.6c-0.4,0-0.7,0.2-0.7,0.5
		c0,0.4,0.6,0.5,1.3,0.8C55,28.6,56,29,56,30.2c0,1.4-1.1,2-2.4,2C52.7,32.3,51.7,32,50.8,31.3z"/>
	<path class="st1" d="M56.7,31.3l0.8-1.2c0.7,0.5,1.4,0.8,2,0.8c0.5,0,0.8-0.2,0.8-0.5c0-0.4-0.6-0.5-1.3-0.7C58,29.4,57,29,57,27.7
		c0-1.3,1-2,2.3-2c0.8,0,1.7,0.3,2.4,0.7L61,27.7c-0.6-0.4-1.3-0.6-1.7-0.6c-0.4,0-0.7,0.2-0.7,0.5c0,0.4,0.6,0.5,1.3,0.8
		c0.9,0.3,1.9,0.7,1.9,1.9c0,1.4-1.1,2-2.4,2C58.5,32.3,57.5,32,56.7,31.3z"/>
	<path class="st1" d="M62.8,29c0-1.8,1.3-3.3,3.1-3.3c2.1,0,3.1,1.6,3.1,3.4c0,0.1,0,0.3,0,0.5h-4.4c0.2,0.8,0.7,1.2,1.6,1.2
		c0.6,0,1-0.2,1.5-0.7l1,0.9c-0.6,0.7-1.4,1.2-2.6,1.2C64.2,32.3,62.8,31,62.8,29z M67.3,28.5c-0.1-0.8-0.6-1.3-1.3-1.3
		c-0.7,0-1.2,0.5-1.4,1.3H67.3z"/>
	<path class="st1" d="M70.6,30.4v-3h-0.8v-1.5h0.8v-1.6h1.8v1.6h1.5v1.5h-1.5v2.7c0,0.4,0.2,0.6,0.6,0.6c0.3,0,0.6-0.1,0.9-0.2v1.4
		c-0.4,0.2-0.8,0.4-1.4,0.4C71.4,32.3,70.6,31.8,70.6,30.4z"/>
	<path class="st1" d="M79,23.9h2l2.2,3.5l2.2-3.5h2v8.3h-1.8v-5.4l-2.3,3.5h0l-2.3-3.5v5.4H79V23.9z"/>
	<path class="st1" d="M88.7,30.3c0-1.4,1.1-2,2.6-2c0.6,0,1.1,0.1,1.5,0.3v-0.1c0-0.7-0.5-1.2-1.4-1.2c-0.7,0-1.2,0.1-1.8,0.3
		l-0.4-1.4c0.7-0.3,1.4-0.5,2.5-0.5c1,0,1.7,0.3,2.1,0.7c0.5,0.5,0.7,1.2,0.7,2v3.7h-1.7v-0.7c-0.4,0.5-1,0.8-1.9,0.8
		C89.7,32.3,88.7,31.6,88.7,30.3z M92.8,29.9v-0.3c-0.3-0.1-0.7-0.2-1.1-0.2c-0.8,0-1.2,0.3-1.2,0.9c0,0.5,0.4,0.8,1,0.8
		C92.3,31,92.8,30.6,92.8,29.9z"/>
	<path class="st1" d="M96.1,25.8h1.8v0.9c0.4-0.5,0.9-1,1.9-1c1.4,0,2.2,0.9,2.2,2.4v4.1h-1.8v-3.5c0-0.9-0.4-1.3-1.1-1.3
		c-0.7,0-1.1,0.4-1.1,1.3v3.5h-1.8V25.8z"/>
	<path class="st1" d="M103.1,30.3c0-1.4,1.1-2,2.6-2c0.6,0,1.1,0.1,1.5,0.3v-0.1c0-0.7-0.5-1.2-1.4-1.2c-0.7,0-1.2,0.1-1.8,0.3
		l-0.4-1.4c0.7-0.3,1.4-0.5,2.5-0.5c1,0,1.7,0.3,2.1,0.7c0.5,0.5,0.7,1.2,0.7,2v3.7h-1.7v-0.7c-0.4,0.5-1,0.8-1.9,0.8
		C104.1,32.3,103.1,31.6,103.1,30.3z M107.2,29.9v-0.3c-0.3-0.1-0.7-0.2-1.1-0.2c-0.8,0-1.2,0.3-1.2,0.9c0,0.5,0.4,0.8,1,0.8
		C106.6,31,107.2,30.6,107.2,29.9z"/>
	<path class="st1" d="M110.5,33.4l0.6-1.3c0.7,0.4,1.3,0.6,2.1,0.6c1.2,0,1.8-0.6,1.8-1.7v-0.3c-0.5,0.6-1.1,1-2.1,1
		c-1.5,0-2.8-1.1-2.8-3c0-1.9,1.4-3,2.8-3c1,0,1.6,0.4,2,0.9v-0.8h1.8v4.9c0,1.1-0.3,2-0.8,2.5c-0.6,0.6-1.5,0.9-2.7,0.9
		C112.3,34.1,111.3,33.8,110.5,33.4z M115.1,28.7c0-0.9-0.7-1.5-1.6-1.5c-0.9,0-1.5,0.6-1.5,1.5c0,0.9,0.7,1.5,1.5,1.5
		C114.4,30.1,115.1,29.5,115.1,28.7z"/>
	<path class="st1" d="M118.1,29c0-1.8,1.3-3.3,3.1-3.3c2.1,0,3.1,1.6,3.1,3.4c0,0.1,0,0.3,0,0.5h-4.4c0.2,0.8,0.7,1.2,1.5,1.2
		c0.6,0,1-0.2,1.5-0.7l1,0.9c-0.6,0.7-1.4,1.2-2.6,1.2C119.5,32.3,118.1,31,118.1,29z M122.6,28.5c-0.1-0.8-0.6-1.3-1.3-1.3
		c-0.7,0-1.2,0.5-1.4,1.3H122.6z"/>
	<path class="st1" d="M125.7,25.8h1.8v1.3c0.4-0.9,1-1.4,2-1.4v1.9h-0.1c-1.2,0-1.9,0.7-1.9,2.2v2.3h-1.8V25.8z"/>
</g>
</svg>
