<?xml version="1.0" encoding="utf-8"?>
<!-- Generator: Adobe Illustrator 21.0.1, SVG Export Plug-In . SVG Version: 6.00 Build 0)  -->
<svg version="1.1" id="Layer_1" xmlns="http://www.w3.org/2000/svg" xmlns:xlink="http://www.w3.org/1999/xlink" x="0px" y="0px"
	 viewBox="0 0 224 52.1" style="enable-background:new 0 0 224 52.1;" xml:space="preserve">
<style type="text/css">
	.st0{fill:#2D2D2D;}
	.st1{fill:#989696;}
</style>
<g>
	<g>
		<path class="st0" d="M87.8,30.9h-4.3c-0.2,0-0.4-0.1-0.4-0.3l-2.5-6.2c-0.1-0.2-0.2-0.3-0.4-0.3h-9c-0.2,0-0.4,0.1-0.4,0.3
			l-2.5,6.2c-0.1,0.2-0.2,0.3-0.4,0.3h-4.3c-0.3,0-0.6-0.3-0.4-0.6L73.6,5c0.1-0.2,0.2-0.3,0.4-0.3h3.3c0.2,0,0.4,0.1,0.4,0.3
			l10.5,25.2C88.3,30.5,88.1,30.9,87.8,30.9z M78.4,18.8l-2.3-5.9c-0.2-0.4-0.7-0.4-0.9,0l-2.3,5.9c-0.1,0.3,0.1,0.6,0.4,0.6H78
			C78.3,19.4,78.5,19.1,78.4,18.8z"/>
	</g>
	<g>
		<path class="st0" d="M119.6,30.9h-3.8c-0.3,0-0.5-0.2-0.5-0.5v-9.9c0-1.4-0.2-2.5-0.5-3.3c-0.6-1.4-1.7-2-3.3-2
			c-1.6,0-2.6,0.7-3.2,2c-0.4,0.8-0.6,1.9-0.6,3.4v9.9c0,0.3-0.2,0.5-0.5,0.5h-3.8c-0.3,0-0.5-0.2-0.5-0.5v-9.9
			c0-1.4-0.2-2.5-0.5-3.3c-0.6-1.4-1.7-2-3.3-2c-1.6,0-2.6,0.7-3.2,2c-0.4,0.8-0.6,1.9-0.6,3.4v9.9c0,0.3-0.2,0.5-0.5,0.5h-3.8
			c-0.3,0-0.5-0.2-0.5-0.5V11.8c0-0.3,0.2-0.5,0.5-0.5h3.4c0.3,0,0.5,0.2,0.5,0.5v1.3c0.7-0.9,1.5-1.5,2.4-1.9
			c0.9-0.4,1.9-0.5,2.8-0.5c1.1,0,2.1,0.2,3.1,0.7c0.9,0.4,1.7,1.1,2.3,1.8c0.2,0.2,0.5,0.2,0.7,0c0.6-0.6,1.2-1.2,1.9-1.6
			c1.2-0.6,2.5-0.9,3.9-0.9c2.4,0,4.4,0.8,5.8,2.3c1.4,1.5,2.2,3.7,2.2,6.4v11C120.1,30.7,119.9,30.9,119.6,30.9z"/>
	</g>
	<g>
		<path class="st0" d="M144.3,21.1c0,2.7-0.8,5-2.3,7c-1.8,2.3-4.2,3.4-7.3,3.4c-1.3,0-2.6-0.3-3.7-0.8c-0.8-0.3-1.4-0.8-2-1.5
			c-0.3-0.3-0.8-0.1-0.8,0.3l0,0.9c0,0.3-0.2,0.5-0.5,0.5h-3.4c-0.3,0-0.5-0.2-0.5-0.5V5.2c0-0.3,0.2-0.5,0.5-0.5h3.8
			c0.3,0,0.5,0.2,0.5,0.5v7.1c0,0.4,0.5,0.6,0.8,0.3c1.5-1.3,3.2-1.9,5.3-1.9c3.2,0,5.6,1.1,7.4,3.3C143.5,16,144.3,18.3,144.3,21.1
			z M139.6,21.1c0-1.7-0.5-3.2-1.5-4.3c-1-1.1-2.4-1.7-4-1.7c-1.6,0-3,0.5-4.1,1.6c-1.1,1.1-1.7,2.4-1.7,4.1c0,1.8,0.5,3.2,1.6,4.4
			c1.1,1.2,2.5,1.8,4.2,1.8c1.6,0,3-0.6,4-1.7C139.1,24.2,139.6,22.8,139.6,21.1z"/>
	</g>
	<g>
		<path class="st0" d="M149.6,9.2h-0.1c-1.3,0-2.3-1-2.3-2.3v0c0-1.3,1-2.3,2.3-2.3h0.1c1.3,0,2.3,1,2.3,2.3v0
			C151.8,8.2,150.8,9.2,149.6,9.2z M151.4,30.9h-3.8c-0.3,0-0.5-0.2-0.5-0.5V11.8c0-0.3,0.2-0.5,0.5-0.5h3.8c0.3,0,0.5,0.2,0.5,0.5
			v18.6C151.8,30.7,151.6,30.9,151.4,30.9z"/>
	</g>
	<g>
		<path class="st0" d="M168.5,24.7c0,1.9-0.6,3.6-1.9,4.8c-1.3,1.3-3,1.9-5.1,1.9c-2.2,0-3.9-0.7-5.3-2.1c-1.1-1.2-1.7-2.6-1.8-4.2
			c0-0.3,0.2-0.5,0.5-0.5h3.8c0.2,0,0.4,0.2,0.4,0.4c0.1,0.5,0.3,0.9,0.7,1.3c0.5,0.4,1.1,0.6,1.8,0.6c0.7,0,1.2-0.2,1.6-0.5
			c0.4-0.4,0.6-0.8,0.6-1.5c0-0.5-0.2-1-0.5-1.3c-0.2-0.2-0.7-0.5-1.3-0.7c-0.3-0.1-0.6-0.2-0.7-0.2c-0.4-0.1-0.8-0.3-1.3-0.4
			c-1.4-0.4-2.4-1-3.2-1.6c-1.2-1-1.8-2.4-1.8-4c0-1.5,0.5-2.9,1.6-4c1.2-1.3,2.9-2,5-2c1.8,0,3.3,0.6,4.5,1.7
			c1.1,1,1.7,2.3,1.8,3.8c0,0.3-0.2,0.5-0.5,0.5h-3.8c-0.2,0-0.4-0.1-0.4-0.3c-0.1-0.3-0.2-0.6-0.4-0.8c-0.3-0.3-0.7-0.5-1.3-0.5
			c-0.6,0-1,0.2-1.3,0.5c-0.3,0.3-0.4,0.7-0.4,1.2c0,0.7,0.4,1.2,1.1,1.5c0.4,0.2,1,0.4,1.9,0.6c1.7,0.4,3,0.9,3.8,1.5
			C167.9,21.5,168.5,22.9,168.5,24.7z"/>
	</g>
	<g>
		<path class="st0" d="M190.2,30.9h-3.4c-0.3,0-0.5-0.2-0.5-0.5v-1c0-0.4-0.5-0.6-0.8-0.3c-0.6,0.6-1.3,1.1-2.1,1.5
			c-2.1,1-4.6,1.1-7.5,0.2c0,0-0.1,0-0.1,0c-3.8-2.1-5.7-5.3-5.7-9.5c0-3,0.9-5.5,2.8-7.5s4.2-3,6.9-3c2.4,0,4.2,0.8,5.6,2.3
			c0.3,0.3,0.8,0.1,0.8-0.3l0-1c0-0.3,0.2-0.5,0.5-0.5h3.4c0.3,0,0.5,0.2,0.5,0.5v18.6C190.6,30.7,190.4,30.9,190.2,30.9z M186.2,21
			c0-1.7-0.5-3.1-1.5-4.2c-1-1.1-2.4-1.7-4.1-1.7c-1.7,0-3,0.6-4.1,1.7c-1.1,1.1-1.6,2.6-1.6,4.4c0,1.7,0.5,3,1.6,4.1
			c1.1,1.1,2.5,1.6,4.1,1.6c1.7,0,3-0.5,4.1-1.6S186.2,22.8,186.2,21z"/>
	</g>
	<g>
		<path class="st0" d="M201.8,15.5h-2c-0.3,0-0.5,0.2-0.5,0.5v14.5c0,0.3-0.2,0.5-0.5,0.5H195c-0.3,0-0.5-0.2-0.5-0.5V15.9
			c0-0.3-0.2-0.5-0.5-0.5h-0.7c-0.3,0-0.5-0.2-0.5-0.5v-3.2c0-0.3,0.2-0.5,0.5-0.5h1.2v-0.2c0-2.1,0.6-3.8,1.9-5
			c1.2-1.2,2.9-1.8,4.9-1.8h0.9V9h-0.6c-0.8,0-1.3,0.2-1.7,0.6c-0.4,0.4-0.6,0.9-0.6,1.5v0.2h2.5c0.3,0,0.5,0.2,0.5,0.5V15
			C202.2,15.3,202,15.5,201.8,15.5z"/>
	</g>
	<g>
		<path class="st0" d="M224,21.1v0.5c0,0.4,0,0.7-0.1,1.1c0,0.2-0.2,0.4-0.5,0.4h-14.3c-0.3,0-0.5,0.3-0.4,0.7
			c0.3,0.9,0.9,1.6,1.6,2.1c0.9,0.7,2,1.1,3.3,1.1c0.8,0,1.6-0.1,2.3-0.4c0.8-0.3,1.4-0.7,2-1.3c0.1-0.1,0.2-0.1,0.3-0.1h4.4
			c0.3,0,0.6,0.4,0.4,0.7c-0.9,1.7-2,3-3.6,4c-1.7,1.1-3.6,1.6-5.6,1.6c-3.2,0-5.9-1.1-7.8-3.4c-1.7-2-2.5-4.3-2.5-6.8
			c0-2.6,0.8-4.9,2.5-6.9c2-2.4,4.6-3.6,7.9-3.6c3,0,5.4,1,7.3,3C223,15.7,224,18.1,224,21.1z M218.4,19c0.3,0,0.5-0.3,0.4-0.7
			c-0.4-0.9-0.9-1.6-1.7-2.2c-0.9-0.7-2-1-3.2-1c-1.3,0-2.4,0.4-3.4,1.1c-0.8,0.6-1.4,1.3-1.8,2.1c-0.2,0.3,0.1,0.7,0.4,0.7H218.4z"
			/>
	</g>
	<path class="st0" d="M34.2,26.6c-0.2-2.4-2.2-4.4-4.6-4.6c-3.1-0.2-5.7,2.3-5.4,5.4c0.2,2.4,2.2,4.4,4.6,4.6
		C31.9,32.2,34.4,29.7,34.2,26.6z"/>
	<path class="st0" d="M50.7,26.7c0-0.1,0-0.2,0-0.3c-0.2-6.5-3.2-12.4-8-16.2c-0.5-0.4-0.6-1.1-0.3-1.6l0,0l1.4-2.4
		c1.1-1.9,0.5-4.3-1.4-5.4l-0.1,0c-1.9-1.1-4.3-0.5-5.4,1.4L35,5.3c-0.3,0.5-0.8,0.7-1.4,0.6c0,0,0,0,0,0c-1.1-0.3-2.1-0.4-3.4-0.5
		c-3.5-0.2-7.1,0.6-8.9,6.8c-1.3,4.5-0.8,7-0.6,8.2c0.1,0.4,0.6,0.5,0.8,0.2c1.3-1.7,3.3-3,5.9-3.5c0.5-0.1,1.7-0.2,2.8-0.1
		c4.1,0.3,9.3,2,14.7,6.3c2.4,1.9,3.8,3.4,4.8,4.5c0.3,0.3,0.8,0.1,0.8-0.3c0-0.2,0-0.3,0-0.5C50.7,27,50.7,26.8,50.7,26.7z"/>
	<path class="st0" d="M27.7,37.5c0.3-0.3,0.1-0.8-0.3-0.8c-2.2-0.3-4.2-1.3-6-3.4c-0.3-0.4-1-1.3-1.5-2.4c-1.8-3.7-2.9-9-1.8-15.9
		c0.4-3,1-5,1.5-6.4C19.7,8.2,19.3,7.9,19,8c-0.2,0.1-0.3,0.2-0.5,0.3c0,0-0.2,0.1-0.3,0.2c-0.1,0-0.2,0.1-0.2,0.1
		c-5.6,3.4-9.1,9-10,15c-0.1,0.6-0.6,1.1-1.3,1.1l0,0l-2.7,0c-2.2,0-4,1.8-4,4v0.1c0,2.2,1.8,4,4,4l3.6,0c0.6,0,1,0.4,1.2,0.9
		c0,0,0,0,0,0c0.3,1.1,0.7,2,1.3,3.2c1.6,3.1,4.1,5.9,10.3,4.3C24.9,39.9,26.9,38.3,27.7,37.5z"/>
	<path class="st0" d="M45.1,41.4C45.1,41.4,45.1,41.4,45.1,41.4c0.8-0.8,1.4-1.6,2.1-2.7c1.9-2.9,3-6.5-1.5-11.1
		c-3.3-3.3-5.7-4.2-6.8-4.6c-0.4-0.1-0.7,0.3-0.6,0.6c0.9,2,1,4.3,0.1,6.9c-0.2,0.5-0.7,1.5-1.3,2.5c-2.3,3.4-6.4,7-12.8,9.6
		c-2.8,1.1-4.8,1.6-6.3,1.9c-0.4,0.1-0.5,0.6-0.2,0.8c0.1,0.1,0.3,0.2,0.4,0.3c0,0,0.2,0.1,0.3,0.2c0.1,0,0.2,0.1,0.2,0.1
		c5.7,3.1,12.3,3.4,18,1.2c0.6-0.2,1.2,0,1.6,0.6l0,0l1.4,2.4c1.1,1.9,3.5,2.6,5.4,1.5l0.1,0c1.9-1.1,2.6-3.5,1.5-5.4L45,42.9
		C44.7,42.4,44.8,41.8,45.1,41.4z"/>
	<g>
		<path class="st1" d="M69.1,36.4h2.6l5.4,12.8h-2.9L73,46.3h-5.4l-1.2,2.9h-2.8L69.1,36.4z M72,43.8l-1.7-4.1l-1.7,4.1H72z"/>
		<path class="st1" d="M78,47.9l1.2-1.8c1.1,0.8,2.2,1.2,3.1,1.2c0.8,0,1.2-0.3,1.2-0.8c0-0.6-0.9-0.8-2-1.1c-1.4-0.4-2.9-1-2.9-3
			c0-2,1.6-3.1,3.6-3.1c1.2,0,2.6,0.4,3.6,1.1l-1.1,1.9c-1-0.6-1.9-0.9-2.6-0.9c-0.7,0-1,0.3-1,0.7c0,0.5,0.9,0.8,2,1.2
			c1.4,0.5,2.9,1.1,2.9,2.9c0,2.2-1.6,3.1-3.7,3.1C80.8,49.3,79.3,48.9,78,47.9z"/>
		<path class="st1" d="M86.9,47.9l1.2-1.8c1.1,0.8,2.2,1.2,3.1,1.2c0.8,0,1.2-0.3,1.2-0.8c0-0.6-0.9-0.8-2-1.1c-1.4-0.4-2.9-1-2.9-3
			c0-2,1.6-3.1,3.6-3.1c1.2,0,2.6,0.4,3.6,1.1l-1.1,1.9c-1-0.6-1.9-0.9-2.6-0.9c-0.7,0-1,0.3-1,0.7c0,0.5,0.9,0.8,2,1.2
			c1.4,0.5,2.9,1.1,2.9,2.9c0,2.2-1.6,3.1-3.7,3.1C89.8,49.3,88.2,48.9,86.9,47.9z"/>
		<path class="st1" d="M96.3,44.3c0-2.8,2-5.1,4.8-5.1c3.2,0,4.7,2.5,4.7,5.3c0,0.2,0,0.5,0,0.7h-6.8c0.3,1.3,1.1,1.9,2.4,1.9
			c0.9,0,1.6-0.3,2.4-1l1.6,1.4c-0.9,1.1-2.2,1.8-4,1.8C98.5,49.4,96.3,47.3,96.3,44.3z M103.2,43.5c-0.2-1.2-0.9-2.1-2.1-2.1
			c-1.1,0-1.9,0.8-2.1,2.1H103.2z"/>
		<path class="st1" d="M108.4,46.4v-4.6h-1.2v-2.4h1.2v-2.5h2.8v2.5h2.3v2.4h-2.3v4.2c0,0.6,0.3,0.9,0.9,0.9c0.5,0,1-0.1,1.4-0.3
			v2.2c-0.6,0.3-1.3,0.6-2.2,0.6C109.5,49.3,108.4,48.7,108.4,46.4z"/>
		<path class="st1" d="M121.2,36.5h3l3.3,5.4l3.3-5.4h3v12.7h-2.8v-8.3l-3.6,5.4h-0.1l-3.5-5.4v8.2h-2.7V36.5z"/>
		<path class="st1" d="M136.1,46.3c0-2.1,1.6-3.1,3.9-3.1c1,0,1.7,0.2,2.4,0.4v-0.2c0-1.1-0.7-1.8-2.1-1.8c-1.1,0-1.8,0.2-2.7,0.5
			l-0.7-2.1c1.1-0.5,2.1-0.8,3.8-0.8c1.5,0,2.6,0.4,3.3,1.1c0.7,0.7,1.1,1.8,1.1,3.1v5.6h-2.7v-1.1c-0.7,0.7-1.6,1.2-2.9,1.2
			C137.6,49.3,136.1,48.3,136.1,46.3z M142.4,45.7v-0.5c-0.5-0.2-1.1-0.4-1.8-0.4c-1.2,0-1.9,0.5-1.9,1.4c0,0.7,0.6,1.2,1.5,1.2
			C141.6,47.4,142.4,46.7,142.4,45.7z"/>
		<path class="st1" d="M147.4,39.4h2.8v1.4c0.6-0.8,1.5-1.6,2.9-1.6c2.1,0,3.3,1.4,3.3,3.6v6.3h-2.8v-5.4c0-1.3-0.6-2-1.7-2
			c-1.1,0-1.7,0.7-1.7,2v5.4h-2.8V39.4z"/>
		<path class="st1" d="M158.2,46.3c0-2.1,1.6-3.1,3.9-3.1c1,0,1.7,0.2,2.4,0.4v-0.2c0-1.1-0.7-1.8-2.1-1.8c-1.1,0-1.8,0.2-2.7,0.5
			l-0.7-2.1c1.1-0.5,2.1-0.8,3.8-0.8c1.5,0,2.6,0.4,3.3,1.1c0.7,0.7,1.1,1.8,1.1,3.1v5.6h-2.7v-1.1c-0.7,0.7-1.6,1.2-2.9,1.2
			C159.7,49.3,158.2,48.3,158.2,46.3z M164.5,45.7v-0.5c-0.5-0.2-1.1-0.4-1.8-0.4c-1.2,0-1.9,0.5-1.9,1.4c0,0.7,0.6,1.2,1.5,1.2
			C163.6,47.4,164.5,46.7,164.5,45.7z"/>
		<path class="st1" d="M169.5,51.1l0.9-2.1c1,0.6,2,0.9,3.3,0.9c1.9,0,2.8-0.9,2.8-2.7v-0.5c-0.8,1-1.7,1.6-3.2,1.6
			c-2.3,0-4.3-1.7-4.3-4.6c0-2.9,2.1-4.5,4.3-4.5c1.5,0,2.4,0.6,3.1,1.5v-1.3h2.8V47c0,1.7-0.4,3-1.2,3.8c-0.9,0.9-2.3,1.3-4.2,1.3
			C172.3,52.1,170.8,51.7,169.5,51.1z M176.5,43.8c0-1.3-1-2.3-2.4-2.3c-1.3,0-2.4,0.9-2.4,2.3c0,1.3,1,2.3,2.4,2.3
			C175.5,46.1,176.5,45.1,176.5,43.8z"/>
		<path class="st1" d="M181.3,44.3c0-2.8,2-5.1,4.8-5.1c3.2,0,4.7,2.5,4.7,5.3c0,0.2,0,0.5,0,0.7H184c0.3,1.3,1.1,1.9,2.4,1.9
			c0.9,0,1.6-0.3,2.4-1l1.6,1.4c-0.9,1.1-2.2,1.8-4,1.8C183.4,49.4,181.3,47.3,181.3,44.3z M188.1,43.5c-0.2-1.2-0.9-2.1-2.1-2.1
			c-1.1,0-1.9,0.8-2.1,2.1H188.1z"/>
		<path class="st1" d="M192.9,39.4h2.8v2c0.6-1.3,1.5-2.2,3.1-2.1v2.9h-0.1c-1.8,0-3,1.1-3,3.4v3.6h-2.8V39.4z"/>
	</g>
</g>
</svg>
