<?xml version="1.0" encoding="utf-8"?>
<!-- Generator: Adobe Illustrator 21.0.1, SVG Export Plug-In . SVG Version: 6.00 Build 0)  -->
<svg version="1.1" id="Layer_1" xmlns="http://www.w3.org/2000/svg" xmlns:xlink="http://www.w3.org/1999/xlink" x="0px" y="0px"
	 viewBox="0 0 28 28" style="enable-background:new 0 0 28 28;" xml:space="preserve">
<style type="text/css">
	.st0{fill:#989696;}
	.st1{fill:#F4F4F4;}
</style>
<title>assets_icon_active</title>
<desc>Created using Figma</desc>
<path class="st0" d="M24,0H4C1.8,0,0,1.8,0,4v20c0,2.2,1.8,4,4,4h20c2.2,0,4-1.8,4-4V4C28,1.8,26.2,0,24,0z M26,24c0,1.1-0.9,2-2,2
	H4c-1.1,0-2-0.9-2-2V4c0-1.1,0.9-2,2-2h20c1.1,0,2,0.9,2,2V24z"/>
<g>
	<path class="st1" d="M9,21H5c-0.6,0-1,0.4-1,1s0.4,1,1,1h4c0.6,0,1-0.4,1-1S9.6,21,9,21z"/>
	<path class="st1" d="M16,21h-4c-0.6,0-1,0.4-1,1s0.4,1,1,1h4c0.6,0,1-0.4,1-1S16.6,21,16,21z"/>
	<path class="st1" d="M9,13H5c-0.6,0-1,0.4-1,1s0.4,1,1,1h4c0.6,0,1-0.4,1-1S9.6,13,9,13z"/>
	<path class="st1" d="M9,17H5c-0.6,0-1,0.4-1,1s0.4,1,1,1h4c0.6,0,1-0.4,1-1S9.6,17,9,17z"/>
	<path class="st1" d="M16,17h-4c-0.6,0-1,0.4-1,1s0.4,1,1,1h4c0.6,0,1-0.4,1-1S16.6,17,16,17z"/>
	<path class="st1" d="M16,13h-4c-0.6,0-1,0.4-1,1s0.4,1,1,1h4c0.6,0,1-0.4,1-1S16.6,13,16,13z"/>
	<path class="st1" d="M16,9h-4c-0.6,0-1,0.4-1,1s0.4,1,1,1h4c0.6,0,1-0.4,1-1S16.6,9,16,9z"/>
	<path class="st1" d="M16,5h-4c-0.6,0-1,0.4-1,1s0.4,1,1,1h4c0.6,0,1-0.4,1-1S16.6,5,16,5z"/>
	<path class="st1" d="M23,21h-4c-0.6,0-1,0.4-1,1s0.4,1,1,1h4c0.6,0,1-0.4,1-1S23.6,21,23,21z"/>
	<path class="st1" d="M23,17h-4c-0.6,0-1,0.4-1,1s0.4,1,1,1h4c0.6,0,1-0.4,1-1S23.6,17,23,17z"/>
	<path class="st1" d="M23,13h-4c-0.6,0-1,0.4-1,1s0.4,1,1,1h4c0.6,0,1-0.4,1-1S23.6,13,23,13z"/>
	<path class="st1" d="M19,11h4c0.6,0,1-0.4,1-1s-0.4-1-1-1h-4c-0.6,0-1,0.4-1,1S18.4,11,19,11z"/>
</g>
</svg>
