<?xml version="1.0" encoding="utf-8"?>
<!-- Generator: Adobe Illustrator 21.0.1, SVG Export Plug-In . SVG Version: 6.00 Build 0)  -->
<svg version="1.1" id="Layer_1" xmlns="http://www.w3.org/2000/svg" xmlns:xlink="http://www.w3.org/1999/xlink" x="0px" y="0px"
	 viewBox="0 0 26 26" style="enable-background:new 0 0 26 26;" xml:space="preserve">
<style type="text/css">
	.st0{fill:#F4F4F4;}
	.st1{fill:#E42520;}
</style>
<title>dashboard_iocon</title>
<desc>Created using Figma</desc>
<g>
	<path class="st0" d="M2,0C1.4,0,1,0.4,1,1v24c0,0.6,0.4,1,1,1s1-0.4,1-1V1C3,0.4,2.6,0,2,0z"/>
	<path class="st0" d="M9,0C8.4,0,8,0.4,8,1v24c0,0.6,0.4,1,1,1s1-0.4,1-1V1C10,0.4,9.6,0,9,0z"/>
	<path class="st0" d="M16,0c-0.6,0-1,0.4-1,1v24c0,0.6,0.4,1,1,1s1-0.4,1-1V1C17,0.4,16.6,0,16,0z"/>
	<path class="st0" d="M23,0c-0.6,0-1,0.4-1,1v24c0,0.6,0.4,1,1,1s1-0.4,1-1V1C24,0.4,23.6,0,23,0z"/>
</g>
<g>
	<circle class="st1" cx="2" cy="6" r="2"/>
	<circle class="st1" cx="9" cy="19" r="3"/>
	<circle class="st1" cx="16" cy="9" r="2"/>
	<circle class="st1" cx="23" cy="12" r="3"/>
</g>
</svg>
