<?xml version="1.0" encoding="utf-8"?>
<!-- Generator: Adobe Illustrator 21.0.1, SVG Export Plug-In . SVG Version: 6.00 Build 0)  -->
<svg version="1.1" id="Layer_1" xmlns="http://www.w3.org/2000/svg" xmlns:xlink="http://www.w3.org/1999/xlink" x="0px" y="0px"
	 viewBox="0 0 24 22" style="enable-background:new 0 0 24 22;" xml:space="preserve">
<style type="text/css">
	.st0{fill:#989696;}
	.st1{fill:#F4F4F4;}
</style>
<title>history</title>
<desc>Created using Figma</desc>
<g>
	<path class="st0" d="M10,4h13c0.6,0,1-0.4,1-1s-0.4-1-1-1H10C9.4,2,9,2.4,9,3S9.4,4,10,4z"/>
	<path class="st0" d="M23,18H10c-0.6,0-1,0.4-1,1s0.4,1,1,1h13c0.6,0,1-0.4,1-1S23.6,18,23,18z"/>
	<path class="st0" d="M23,10H10c-0.6,0-1,0.4-1,1s0.4,1,1,1h13c0.6,0,1-0.4,1-1S23.6,10,23,10z"/>
	<path class="st0" d="M23,6H10C9.4,6,9,6.4,9,7s0.4,1,1,1h13c0.6,0,1-0.4,1-1S23.6,6,23,6z"/>
	<path class="st0" d="M23,14H10c-0.6,0-1,0.4-1,1s0.4,1,1,1h13c0.6,0,1-0.4,1-1S23.6,14,23,14z"/>
</g>
<g>
	<path class="st1" d="M0,3C0,3,0,3,0,3c0,0.1,0,0.3,0.1,0.4c0.1,0.1,0.1,0.2,0.2,0.3l2,2c0.4,0.4,1,0.4,1.4,0c0.4-0.4,0.4-1,0-1.4
		L3.4,4H7c0.6,0,1-0.4,1-1S7.6,2,7,2H3.4l0.3-0.3c0.4-0.4,0.4-1,0-1.4c-0.4-0.4-1-0.4-1.4,0l-2,2C0.2,2.4,0.1,2.5,0.1,2.6
		C0,2.7,0,2.9,0,3C0,3,0,3,0,3z"/>
	<path class="st1" d="M7,18H3.4l0.3-0.3c0.4-0.4,0.4-1,0-1.4c-0.4-0.4-1-0.4-1.4,0l-2,2c-0.1,0.1-0.2,0.2-0.2,0.3
		C0,18.7,0,18.9,0,19c0,0,0,0,0,0s0,0,0,0c0,0.1,0,0.3,0.1,0.4c0.1,0.1,0.1,0.2,0.2,0.3l2,2c0.4,0.4,1,0.4,1.4,0
		c0.4-0.4,0.4-1,0-1.4L3.4,20H7c0.6,0,1-0.4,1-1S7.6,18,7,18z"/>
	<path class="st1" d="M7.7,10.3l-2-2c-0.4-0.4-1-0.4-1.4,0c-0.4,0.4-0.4,1,0,1.4L4.6,10H1c-0.6,0-1,0.4-1,1s0.4,1,1,1h3.6l-0.3,0.3
		c-0.4,0.4-0.4,1,0,1.4c0.4,0.4,1,0.4,1.4,0l2-2c0.1-0.1,0.2-0.2,0.2-0.3c0.1-0.2,0.1-0.5,0-0.8C7.9,10.5,7.8,10.4,7.7,10.3z"/>
</g>
</svg>
