<?xml version="1.0" encoding="utf-8"?>
<!-- Generator: Adobe Illustrator 21.0.1, SVG Export Plug-In . SVG Version: 6.00 Build 0)  -->
<svg version="1.1" id="Layer_1" xmlns="http://www.w3.org/2000/svg" xmlns:xlink="http://www.w3.org/1999/xlink" x="0px" y="0px"
	 viewBox="0 0 24 22" style="enable-background:new 0 0 24 22;" xml:space="preserve">
<style type="text/css">
	.st0{fill:#F4F4F4;}
	.st1{fill:#E42520;}
</style>
<title>history</title>
<desc>Created using Figma</desc>
<g id="Stroke_1">
	<g transform="translate(-1936 -191)">
		<path id="path0_fill" class="st0" d="M10,4h13c0.6,0,1-0.4,1-1c0-0.6-0.4-1-1-1H10C9.4,2,9,2.4,9,3C9,3.6,9.4,4,10,4z"/>
	</g>
</g>
<g id="Stroke_7">
	<g transform="translate(-1936 -175)">
		<path id="path0_fill_1_" class="st0" d="M10,20h13c0.6,0,1-0.4,1-1c0-0.6-0.4-1-1-1H10c-0.6,0-1,0.4-1,1C9,19.6,9.4,20,10,20z"/>
	</g>
</g>
<g id="Stroke_13">
	<g transform="translate(-1936 -183)">
		<path id="path0_fill_2_" class="st0" d="M10,12h13c0.6,0,1-0.4,1-1c0-0.6-0.4-1-1-1H10c-0.6,0-1,0.4-1,1C9,11.6,9.4,12,10,12z"/>
	</g>
</g>
<g id="Stroke_15">
	<g transform="translate(-1936 -187)">
		<path id="path0_fill_3_" class="st0" d="M10,8h13c0.6,0,1-0.4,1-1c0-0.6-0.4-1-1-1H10C9.4,6,9,6.4,9,7C9,7.6,9.4,8,10,8z"/>
	</g>
</g>
<g id="Stroke_17">
	<g transform="translate(-1936 -179)">
		<path id="path0_fill_4_" class="st0" d="M10,16h13c0.6,0,1-0.4,1-1c0-0.6-0.4-1-1-1H10c-0.6,0-1,0.4-1,1C9,15.6,9.4,16,10,16z"/>
	</g>
</g>
<g>
	<path class="st1" d="M0,3C0,3,0,3,0,3c0,0.1,0,0.3,0.1,0.4c0.1,0.1,0.1,0.2,0.2,0.3l2,2c0.4,0.4,1,0.4,1.4,0c0.4-0.4,0.4-1,0-1.4
		L3.4,4H7c0.6,0,1-0.4,1-1S7.6,2,7,2H3.4l0.3-0.3c0.4-0.4,0.4-1,0-1.4c-0.4-0.4-1-0.4-1.4,0l-2,2C0.2,2.4,0.1,2.5,0.1,2.6
		C0,2.7,0,2.9,0,3C0,3,0,3,0,3z"/>
	<path class="st1" d="M7,18H3.4l0.3-0.3c0.4-0.4,0.4-1,0-1.4c-0.4-0.4-1-0.4-1.4,0l-2,2c-0.1,0.1-0.2,0.2-0.2,0.3
		C0,18.7,0,18.9,0,19c0,0,0,0,0,0s0,0,0,0c0,0.1,0,0.3,0.1,0.4c0.1,0.1,0.1,0.2,0.2,0.3l2,2c0.4,0.4,1,0.4,1.4,0
		c0.4-0.4,0.4-1,0-1.4L3.4,20H7c0.6,0,1-0.4,1-1S7.6,18,7,18z"/>
	<path class="st1" d="M7.7,10.3l-2-2c-0.4-0.4-1-0.4-1.4,0c-0.4,0.4-0.4,1,0,1.4L4.6,10H1c-0.6,0-1,0.4-1,1s0.4,1,1,1h3.6l-0.3,0.3
		c-0.4,0.4-0.4,1,0,1.4c0.4,0.4,1,0.4,1.4,0l2-2c0.1-0.1,0.2-0.2,0.2-0.3c0.1-0.2,0.1-0.5,0-0.8C7.9,10.5,7.8,10.4,7.7,10.3z"/>
</g>
</svg>
