<?xml version="1.0" encoding="utf-8"?>
<!-- Generator: Adobe Illustrator 21.0.1, SVG Export Plug-In . SVG Version: 6.00 Build 0)  -->
<svg version="1.1" id="Layer_1" xmlns="http://www.w3.org/2000/svg" xmlns:xlink="http://www.w3.org/1999/xlink" x="0px" y="0px"
	 viewBox="0 0 64 64" style="enable-background:new 0 0 64 64;" xml:space="preserve">
<style type="text/css">
	.st0{fill:#2D2D2D;}
	.st1{fill:#989696;}
	.st2{fill:#F4F4F4;}
</style>
<g>
	<circle class="st0" cx="32" cy="32" r="32"/>
</g>
<path class="st1" d="M32,16.2c-8.7,0-15.8,7.1-15.8,15.8c0,3.4,1.1,6.6,3,9.2c-0.1,1.1-0.7,2.2-1.3,3.2c-0.3,0.5-0.7,0.9-1,1.2
	c-0.1,0.2-0.2,0.3-0.3,0.3c0,0-0.1,0.1-0.1,0.1l0,0l0,0l0,0l0,0l0,0c-0.3,0.3-0.4,0.7-0.2,1.1c0.2,0.4,0.5,0.6,0.9,0.6h0h0h0l0,0h0
	l0,0c0,0,0.1,0,0.2,0c0.1,0,0.3,0,0.6,0c0.5,0,1.2-0.1,1.9-0.2c1.4-0.2,3.2-0.7,4.7-1.5c2.2,1.1,4.7,1.8,7.3,1.8
	c8.7,0,15.8-7.1,15.8-15.8C47.8,23.3,40.7,16.2,32,16.2z M32,45.8c-2.5,0-4.8-0.6-6.8-1.8c-0.3-0.2-0.7-0.2-1,0
	c-1.4,0.9-3,1.3-4.5,1.5c-0.1,0-0.1,0-0.2,0c0,0,0-0.1,0.1-0.1c0.8-1.2,1.7-2.8,1.7-4.6c0-0.2-0.1-0.4-0.2-0.6
	c-1.8-2.3-2.8-5.1-2.8-8.3c0-7.6,6.2-13.8,13.8-13.8S45.8,24.4,45.8,32C45.8,39.6,39.6,45.8,32,45.8z"/>
<g>
	<path class="st2" d="M25.2,29.2h14c0.6,0,1-0.4,1-1c0-0.6-0.4-1-1-1h-14c-0.6,0-1,0.4-1,1C24.2,28.8,24.7,29.2,25.2,29.2z"/>
	<path class="st2" d="M39.2,31.2h-14c-0.6,0-1,0.4-1,1c0,0.6,0.4,1,1,1h14c0.6,0,1-0.4,1-1C40.2,31.7,39.8,31.2,39.2,31.2z"/>
	<path class="st2" d="M33.2,35.2h-8c-0.6,0-1,0.4-1,1c0,0.6,0.4,1,1,1h8c0.6,0,1-0.4,1-1C34.2,35.7,33.8,35.2,33.2,35.2z"/>
</g>
</svg>
