<?xml version="1.0" encoding="utf-8"?>
<!-- Generator: Adobe Illustrator 21.0.1, SVG Export Plug-In . SVG Version: 6.00 Build 0)  -->
<svg version="1.1" id="Layer_1" xmlns="http://www.w3.org/2000/svg" xmlns:xlink="http://www.w3.org/1999/xlink" x="0px" y="0px"
	 viewBox="0 0 14 18" style="enable-background:new 0 0 14 18;" xml:space="preserve">
<style type="text/css">
	.st0{fill:#E42520;}
	.st1{fill:#F4F4F4;}
</style>
<title>normal</title>
<desc>Created using Figma</desc>
<path class="st0" d="M9,8H4.4l0.3-0.3c0.4-0.4,0.4-1,0-1.4s-1-0.4-1.4,0l-2,2C1.2,8.4,1.1,8.5,1.1,8.6C1,8.9,1,9.1,1.1,9.4
	c0.1,0.1,0.1,0.2,0.2,0.3l2,2c0.4,0.4,1,0.4,1.4,0s0.4-1,0-1.4L4.4,10H9c0.6,0,1-0.4,1-1S9.6,8,9,8z"/>
<path class="st1" d="M10.7,0H3.3C1.4,0,0,1.7,0,3.6c0,0.6,0.4,1,1,1s1-0.4,1-1C2,2.6,2.7,2,3.3,2h7.4C11.3,2,12,2.6,12,3.6v10.8
	c0,1-0.7,1.6-1.3,1.6H3.4c-0.6,0-1.3-0.6-1.3-1.6c0-0.6-0.4-1-1-1s-1,0.4-1,1c0,1.8,1.3,3.6,3.3,3.6h7.3c1.8,0,3.3-1.7,3.3-3.6V3.6
	C14,1.9,12.7,0,10.7,0z"/>
</svg>
