<?xml version="1.0" encoding="utf-8"?>
<!-- Generator: Adobe Illustrator 21.0.1, SVG Export Plug-In . SVG Version: 6.00 Build 0)  -->
<svg version="1.1" id="Layer_1" xmlns="http://www.w3.org/2000/svg" xmlns:xlink="http://www.w3.org/1999/xlink" x="0px" y="0px"
	 viewBox="0 0 28 16" style="enable-background:new 0 0 28 16;" xml:space="preserve">
<style type="text/css">
	.st0{fill:#E42520;}
	.st1{fill:#F4F4F4;}
</style>
<title>manage_users</title>
<desc>Created using Figma</desc>
<g>
	<path class="st0" d="M25.5,4.7C25.8,4.2,26,3.6,26,3c0-1.7-1.3-3-3-3s-3,1.3-3,3c0,0.6,0.2,1.2,0.5,1.7C19,5.5,18,7.1,18,9
		c0,0.6,0.4,1,1,1s1-0.4,1-1c0-1.7,1.3-3,3-3s3,1.3,3,3c0,0.6,0.4,1,1,1s1-0.4,1-1C28,7.1,27,5.5,25.5,4.7z M22,3c0-0.6,0.4-1,1-1
		s1,0.4,1,1s-0.4,1-1,1S22,3.6,22,3z"/>
	<path class="st0" d="M7.5,4.7C7.8,4.2,8,3.6,8,3c0-1.7-1.3-3-3-3S2,1.3,2,3c0,0.6,0.2,1.2,0.5,1.7C1,5.5,0,7.1,0,9c0,0.6,0.4,1,1,1
		s1-0.4,1-1c0-1.7,1.3-3,3-3s3,1.3,3,3c0,0.6,0.4,1,1,1s1-0.4,1-1C10,7.1,9,5.5,7.5,4.7z M4,3c0-0.6,0.4-1,1-1s1,0.4,1,1S5.6,4,5,4
		S4,3.6,4,3z"/>
</g>
<path class="st1" d="M17.2,7.7c0.8-0.8,1.3-1.9,1.3-3.2C18.5,2,16.5,0,14,0S9.5,2,9.5,4.5c0,1.2,0.5,2.4,1.3,3.2C8,8.9,6,11.7,6,15
	c0,0.6,0.4,1,1,1h14c0.6,0,1-0.4,1-1C22,11.7,20,8.9,17.2,7.7z M11.5,4.5C11.5,3.1,12.6,2,14,2s2.5,1.1,2.5,2.5S15.4,7,14,7
	S11.5,5.9,11.5,4.5z M13.1,9.1v2.4c0,0.5,0.4,0.9,0.9,0.9s0.9-0.4,0.9-0.9V9.1c2.6,0.4,4.6,2.4,5,4.9H8.1
	C8.5,11.5,10.6,9.5,13.1,9.1z"/>
</svg>
