<?xml version="1.0" encoding="utf-8"?>
<!-- Generator: Adobe Illustrator 21.0.1, SVG Export Plug-In . SVG Version: 6.00 Build 0)  -->
<svg version="1.1" id="Layer_1" xmlns="http://www.w3.org/2000/svg" xmlns:xlink="http://www.w3.org/1999/xlink" x="0px" y="0px"
	 viewBox="0 0 26 26" style="enable-background:new 0 0 26 26;" xml:space="preserve">
<style type="text/css">
	.st0{fill:#E42520;}
	.st1{fill:#F4F4F4;}
</style>
<title>normal</title>
<desc>Created using Figma</desc>
<g id="Rectangle_2">
	<g transform="translate(-1838 -347)">
		<path id="path0_fill" class="st0" d="M1850,361c0-0.6,0.4-1,1-1l0,0c0.6,0,1,0.4,1,1v4c0,0.6-0.4,1-1,1l0,0c-0.6,0-1-0.4-1-1V361z
			"/>
	</g>
</g>
<path class="st1" d="M17.1,12.7C18.9,11.4,20,9.3,20,7c0-3.9-3.1-7-7-7S6,3.1,6,7c0,2.3,1.1,4.4,2.9,5.7C3.7,14.4,0,19.3,0,25
	c0,0.6,0.4,1,1,1h24c0.6,0,1-0.4,1-1C26,19.3,22.3,14.4,17.1,12.7z M8,7c0-2.8,2.2-5,5-5s5,2.2,5,5s-2.2,5-5,5S8,9.8,8,7z M2,24
	c0.5-5.6,5.2-10,11-10c5.7,0,10.4,4.4,11,10H2z"/>
</svg>
